<?xml version="1.0" encoding="UTF-8"?><svg id="Ebene_1" xmlns="http://www.w3.org/2000/svg" xmlns:xlink="http://www.w3.org/1999/xlink" viewBox="0 0 285.37 82.92"><defs><style>.cls-1{fill:url(#Unbenannter_Verlauf_73-2);}.cls-2{fill:url(#Unbenannter_Verlauf_73-4);}.cls-3{fill:url(#Unbenannter_Verlauf_73-3);}.cls-4{fill:#fff;}.cls-5{fill:#d5ae27;}.cls-6{fill:url(#Unbenannter_Verlauf_73);}</style><radialGradient id="Unbenannter_Verlauf_73" cx="37.82" cy="41.46" fx="37.82" fy="41.46" r="39.68" gradientUnits="userSpaceOnUse"><stop offset="0" stop-color="#fff"/><stop offset="1" stop-color="#d5ae27"/></radialGradient><radialGradient id="Unbenannter_Verlauf_73-2" cx="41.55" cy="40.18" fx="41.55" fy="40.18" r="37.22" xlink:href="#Unbenannter_Verlauf_73"/><radialGradient id="Unbenannter_Verlauf_73-3" cx="18.46" cy="21.23" fx="18.46" fy="21.23" r="19.89" xlink:href="#Unbenannter_Verlauf_73"/><radialGradient id="Unbenannter_Verlauf_73-4" cx="55.54" cy="64.51" fx="55.54" fy="64.51" r="17.23" xlink:href="#Unbenannter_Verlauf_73"/></defs><g><path class="cls-4" d="m90.67,38.14V2.31h14.53c1.9,0,3.57.39,5.01,1.17,1.44.78,2.54,1.86,3.31,3.24.77,1.38,1.16,2.93,1.16,4.67,0,1.16-.23,2.26-.68,3.3-.45,1.05-1.08,1.96-1.87,2.75-.8.79-1.68,1.38-2.65,1.77,1.31.27,2.51.83,3.61,1.68,1.1.85,1.96,1.93,2.59,3.23.63,1.3.94,2.72.94,4.25,0,1.9-.44,3.6-1.31,5.07s-2.07,2.63-3.58,3.46c-1.51.82-3.19,1.24-5.02,1.24h-16.04Zm14.43-19.92c1.24,0,2.4-.3,3.47-.89,1.07-.59,1.93-1.41,2.58-2.44.65-1.03.97-2.16.97-3.4s-.29-2.32-.87-3.35c-.58-1.03-1.4-1.84-2.46-2.45-1.06-.6-2.28-.91-3.66-.91h-11.86v13.44h11.83Zm1.45,17.42c1.39,0,2.66-.32,3.79-.97,1.13-.65,2.02-1.54,2.66-2.68.65-1.14.97-2.41.97-3.8s-.34-2.64-1.01-3.79c-.67-1.15-1.62-2.05-2.83-2.72-1.22-.66-2.6-.99-4.14-.99h-12.72v14.94h13.29Z"/><path class="cls-4" d="m139.61,38.7c-3.37,0-6.45-.82-9.26-2.45-2.81-1.63-5.03-3.86-6.67-6.68-1.64-2.82-2.46-5.93-2.46-9.33s.82-6.54,2.46-9.36,3.86-5.05,6.67-6.68c2.8-1.63,5.89-2.45,9.26-2.45s6.46.82,9.27,2.45c2.81,1.63,5.04,3.86,6.67,6.68s2.45,5.94,2.45,9.36-.82,6.51-2.45,9.33c-1.63,2.82-3.85,5.05-6.67,6.68-2.81,1.63-5.9,2.45-9.27,2.45Zm0-2.58c2.86,0,5.49-.7,7.89-2.1,2.41-1.4,4.31-3.31,5.71-5.74,1.4-2.42,2.1-5.1,2.1-8.05s-.7-5.63-2.1-8.06c-1.4-2.43-3.31-4.35-5.71-5.75-2.41-1.4-5.04-2.1-7.89-2.1s-5.48.7-7.88,2.1c-2.4,1.4-4.3,3.32-5.7,5.75-1.4,2.43-2.1,5.12-2.1,8.06s.7,5.62,2.1,8.05,3.3,4.33,5.7,5.74,5.02,2.1,7.88,2.1Z"/><path class="cls-4" d="m165.82,38.14V2.31h2.55l24.35,31.42V2.31h2.63v35.83h-2.5l-24.38-31.47v31.47h-2.65Z"/></g><g><path class="cls-6" d="m75.63,2.46c-.6-.99-.98-2.27-1.55-2.37-.77-.14-1.95.43-2.53,1.07-2.42,2.67-4.64,5.51-7,8.24-14.45,16.74-28.87,33.51-43.41,50.17-3.92,4.49-8.25,8.61-12.38,12.91-1.4,1.46-1.62,3.18-.86,5,.74,1.77,2.19,2.69,4.05,2.8,2.1.13,3.42-1.16,4.58-2.75,7.07-9.69,14.23-19.31,21.23-29.05,2.2-3.07,4.93-4.94,8.64-5.53,3.7-.59,6.76-2.39,9.16-5.27,6.41-7.7,12.16-15.85,16.34-24.99,1.48-3.25,2.47-6.72,3.73-10.23ZM8.02,0c-.15.16-.29.33-.44.49.36.48.69.98,1.07,1.43,3.64,4.28,7.29,8.54,10.93,12.81,1.39,1.64,2.81,3.26,4.12,4.95.23.3,0,.95-.02,1.43-.42-.08-.91-.05-1.26-.26-.4-.24-.69-.68-1.01-1.04C16.71,14.46,12.01,9.08,7.28,3.73c-.53-.61-1.2-1.1-1.8-1.64l-.46.45c.37.52.71,1.07,1.11,1.57,2.15,2.63,4.32,5.24,6.48,7.86,2.69,3.26,5.4,6.51,8.03,9.82.3.38.14,1.13.19,1.71-.52-.17-1.07-.28-1.55-.53-.28-.15-.46-.51-.68-.77-4.71-5.55-9.42-11.09-14.15-16.63-.44-.51-1-.92-1.51-1.37l-.46.42c.35.54.66,1.1,1.06,1.61,1.54,1.96,3.11,3.9,4.67,5.85,3.2,4,6.43,7.99,9.58,12.04.31.4.16,1.16.23,1.75-.53-.18-1.12-.27-1.56-.58-.44-.3-.73-.82-1.08-1.25C10.83,18.53,6.29,13.03,1.72,7.54c-.38-.45-.86-.81-1.3-1.22-.14.13-.28.27-.42.4.29.51.52,1.06.86,1.53,5.6,7.76,11.21,15.5,16.8,23.26,1.31,1.82,2.99,2.81,5.27,2.81,3.57,0,6.39,1.55,8.62,4.29,1.04,1.27,2.14,2.49,3.32,3.86.76-.87,1.37-1.58,2.05-2.37-1.04-1.23-2-2.32-2.9-3.45-2.16-2.69-3.51-5.6-2.73-9.21.49-2.27-.32-4.2-1.93-5.86C22.62,14.69,15.92,7.77,9.19.87c-.34-.34-.78-.58-1.18-.87Zm31.57,48.22c1.6,2.08,3.09,3.9,4.45,5.81,6.18,8.7,12.31,17.43,18.5,26.13,2.18,3.07,4.97,3.6,7.37,1.51,2.26-1.96,2.09-4.88-.43-7.4-5.44-5.44-10.91-10.85-16.3-16.34-3.78-3.84-7.47-7.79-11.33-11.82-.72.68-1.41,1.32-2.26,2.12Z"/><path class="cls-1" d="m75.63,2.46c-1.26,3.51-2.25,6.98-3.73,10.23-4.18,9.14-9.92,17.29-16.34,24.99-2.41,2.89-5.46,4.68-9.16,5.27-3.71.59-6.44,2.46-8.64,5.53-7,9.74-14.16,19.36-21.23,29.05-1.16,1.59-2.48,2.88-4.58,2.75-1.86-.11-3.31-1.03-4.05-2.8-.76-1.82-.54-3.54.86-5,4.13-4.3,8.47-8.42,12.38-12.91,14.55-16.66,28.96-33.43,43.41-50.17,2.36-2.73,4.58-5.57,7-8.24.58-.64,1.76-1.21,2.53-1.07.58.1.95,1.38,1.55,2.37Z"/><path class="cls-3" d="m8.02,0c.39.29.84.52,1.18.87,6.72,6.9,13.43,13.82,20.16,20.72,1.62,1.66,2.42,3.59,1.93,5.86-.78,3.61.57,6.52,2.73,9.21.91,1.13,1.87,2.22,2.9,3.45-.68.78-1.29,1.49-2.05,2.37-1.18-1.36-2.28-2.58-3.32-3.86-2.23-2.74-5.05-4.29-8.62-4.29-2.28,0-3.96-.99-5.27-2.81C12.08,23.74,6.46,16,.86,8.25c-.34-.47-.58-1.02-.86-1.53.14-.13.28-.27.42-.4.44.4.92.76,1.3,1.22,4.56,5.49,9.11,10.99,13.66,16.49.35.43.64.95,1.08,1.25.44.31,1.03.4,1.56.58-.06-.59.08-1.35-.23-1.75-3.15-4.05-6.37-8.04-9.58-12.04-1.56-1.95-3.13-3.89-4.67-5.85-.39-.5-.71-1.07-1.06-1.61l.46-.42c.51.45,1.07.86,1.51,1.37,4.73,5.53,9.44,11.08,14.15,16.63.22.26.4.63.68.77.48.25,1.03.36,1.55.53-.05-.58.11-1.33-.19-1.71-2.63-3.31-5.34-6.56-8.03-9.82-2.16-2.62-4.33-5.23-6.48-7.86-.4-.49-.74-1.04-1.11-1.57l.46-.45c.6.54,1.27,1.04,1.8,1.64,4.72,5.35,9.42,10.73,14.13,16.1.32.36.61.8,1.01,1.04.35.21.83.18,1.26.26.02-.49.25-1.14.02-1.43-1.31-1.7-2.73-3.32-4.12-4.95-3.64-4.27-7.29-8.54-10.93-12.81-.39-.45-.72-.95-1.07-1.43.15-.16.29-.33.44-.49Z"/><path class="cls-2" d="m39.58,48.22c.85-.8,1.54-1.44,2.26-2.12,3.86,4.04,7.55,7.98,11.33,11.82,5.4,5.48,10.87,10.89,16.3,16.34,2.52,2.53,2.69,5.45.43,7.4-2.41,2.09-5.19,1.56-7.37-1.51-6.18-8.7-12.31-17.43-18.5-26.13-1.36-1.91-2.85-3.73-4.45-5.81Z"/></g><g><path class="cls-5" d="m83.47,82.92l14.15-35.88h5.74l14.1,35.88h-6.68l-10.02-27.06-.31-1.15-.31,1.15-9.97,27.06h-6.71Zm8.54-7.09l1.96-5.61h13.13l1.96,5.61h-17.06Z"/><path class="cls-5" d="m122.33,82.92v-35.83h13.67c2.52,0,4.71.49,6.59,1.48,1.88.99,3.33,2.37,4.35,4.14s1.53,3.81,1.53,6.11-.5,4.51-1.49,6.32c-.99,1.82-2.43,3.23-4.3,4.23-1.87,1-4.08,1.5-6.63,1.5h-7.27v12.04h-6.45Zm13.23-18.03c1.28,0,2.4-.25,3.37-.75.97-.5,1.73-1.21,2.27-2.13.54-.92.82-1.96.82-3.14s-.27-2.2-.82-3.07c-.54-.88-1.3-1.55-2.26-2.03-.96-.48-2.08-.71-3.35-.71h-6.81v11.83h6.78Z"/><path class="cls-5" d="m154.3,82.92v-35.83h13.67c2.52,0,4.71.49,6.59,1.48,1.88.99,3.33,2.37,4.35,4.14s1.53,3.81,1.53,6.11-.5,4.51-1.49,6.32c-.99,1.82-2.43,3.23-4.3,4.23-1.87,1-4.08,1.5-6.63,1.5h-7.27v12.04h-6.45Zm13.23-18.03c1.28,0,2.4-.25,3.37-.75.97-.5,1.73-1.21,2.27-2.13.54-.92.82-1.96.82-3.14s-.27-2.2-.82-3.07c-.54-.88-1.3-1.55-2.26-2.03-.96-.48-2.08-.71-3.35-.71h-6.81v11.83h6.78Z"/><path class="cls-4" d="m187.1,82.92v-35.83h24.71v2.55h-22.06v13.54h18.16v2.55h-18.16v14.64h22.41v2.55h-25.07Zm12.14-38.35l5.07-5h-3.31l-4.11,5h2.35Z"/><path class="cls-4" d="m228.07,82.92v-33.25h-12.16v-2.58h27.03v2.58h-12.21v33.25h-2.65Z"/><path class="cls-4" d="m249.34,82.92v-35.83h2.65v35.83h-2.65Z"/><path class="cls-4" d="m270.5,82.92v-33.25h-12.16v-2.58h27.03v2.58h-12.21v33.25h-2.65Z"/></g></svg>