<?xml version="1.0" encoding="utf-8"?>
<!-- Generator: Adobe Illustrator 27.1.1, SVG Export Plug-In . SVG Version: 6.00 Build 0)  -->
<svg version="1.1" id="Ebene_1" xmlns="http://www.w3.org/2000/svg" xmlns:xlink="http://www.w3.org/1999/xlink" x="0px" y="0px"
	 viewBox="0 0 285.4 82.9" style="enable-background:new 0 0 285.4 82.9;" xml:space="preserve">
<style type="text/css">
	.st0{fill:#FFFFFF;}
	.st1{fill:url(#SVGID_1_);}
	.st2{fill:url(#SVGID_00000120556293591743771390000008099216938383767936_);}
	.st3{fill:url(#SVGID_00000065069014274007941000000009653756754978626220_);}
	.st4{fill:url(#SVGID_00000090982251743375886880000004354205357990311841_);}
	.st5{fill:#D5AE27;}
</style>
<g>
	<g>
		<path class="st0" d="M105.3,37.7c-3.3,0-6.3-0.8-9-2.4c-2.7-1.6-4.9-3.8-6.5-6.6c-1.6-2.8-2.4-5.8-2.4-9.1s0.8-6.3,2.4-9.1
			c1.6-2.8,3.8-5,6.5-6.6c2.7-1.6,5.8-2.4,9-2.4c2.2,0,4.3,0.4,6.3,1.2c2,0.8,3.8,1.9,5.4,3.2l-1.6,1.9c-1.4-1.2-3-2.1-4.7-2.8
			s-3.6-1-5.4-1c-2.8,0-5.4,0.7-7.7,2.1s-4.2,3.3-5.6,5.7c-1.4,2.4-2.1,5-2.1,7.9c0,2.9,0.7,5.5,2.1,7.9c1.4,2.4,3.2,4.3,5.6,5.7
			c2.3,1.4,4.9,2.1,7.7,2.1c1.2,0,2.5-0.2,3.9-0.5c1.3-0.3,2.6-0.8,3.8-1.4c1.2-0.6,2.2-1.3,3-2l1,2.4c-1.6,1.3-3.4,2.2-5.5,3
			C109.4,37.4,107.4,37.7,105.3,37.7z M114.5,33.8V21.5h2.5v12.2L114.5,33.8z"/>
		<path class="st0" d="M138.3,37.7c-3,0-5.5-0.7-7.7-2c-2.1-1.3-3.7-3.2-4.8-5.5c-1.1-2.4-1.6-5.1-1.6-8.1V2.1h2.6v19.8
			c0,2.6,0.4,4.9,1.3,6.9c0.9,2,2.2,3.6,3.9,4.7c1.7,1.1,3.8,1.7,6.3,1.7c2.4,0,4.5-0.6,6.3-1.7c1.7-1.1,3-2.7,3.9-4.7
			s1.3-4.3,1.3-7V2.1h2.6V22c0,3.1-0.6,5.8-1.7,8.1c-1.1,2.4-2.7,4.2-4.8,5.5C143.8,37.1,141.3,37.7,138.3,37.7z"/>
		<path class="st0" d="M169.5,37.1V4.6h-11.9V2.1H184v2.5h-11.9v32.5H169.5z"/>
		<path class="st0" d="M190.2,37.1v-35h24.1v2.5h-21.5v13.2h17.7v2.5h-17.7v14.3h21.9v2.5H190.2z"/>
		<path class="st0" d="M222.4,37.1v-35h2.5l23.8,30.7V2.1h2.6v35h-2.4L225,6.4v30.7H222.4z"/>
	</g>
	<g>
		<radialGradient id="SVGID_1_" cx="37.1681" cy="41.46" r="38.3198" gradientUnits="userSpaceOnUse">
			<stop  offset="0" style="stop-color:#FFFFFF"/>
			<stop  offset="1" style="stop-color:#D5AE27"/>
		</radialGradient>
		<path class="st1" d="M73.7,3.8c-0.6-1-0.9-2.2-1.5-2.3c-0.7-0.1-1.9,0.4-2.4,1c-2.3,2.6-4.5,5.3-6.8,8C49,26.7,35.1,42.9,21.1,59
			c-3.8,4.3-8,8.3-12,12.5c-1.4,1.4-1.6,3.1-0.8,4.8C9,78,10.4,78.8,12.2,79c2,0.1,3.3-1.1,4.4-2.7c6.8-9.4,13.7-18.6,20.5-28.1
			c2.1-3,4.8-4.8,8.3-5.3c3.6-0.6,6.5-2.3,8.9-5.1c6.2-7.4,11.7-15.3,15.8-24.1C71.5,10.5,72.5,7.2,73.7,3.8z M8.4,1.4
			C8.2,1.6,8.1,1.7,8,1.9c0.3,0.5,0.7,0.9,1,1.4c3.5,4.1,7,8.2,10.6,12.4c1.3,1.6,2.7,3.1,4,4.8c0.2,0.3,0,0.9,0,1.4
			c-0.4-0.1-0.9-0.1-1.2-0.3c-0.4-0.2-0.7-0.7-1-1C16.8,15.4,12.2,10.2,7.7,5C7.2,4.4,6.5,4,5.9,3.4C5.8,3.6,5.6,3.7,5.5,3.9
			c0.4,0.5,0.7,1,1.1,1.5c2.1,2.5,4.2,5.1,6.3,7.6c2.6,3.2,5.2,6.3,7.8,9.5c0.3,0.4,0.1,1.1,0.2,1.7c-0.5-0.2-1-0.3-1.5-0.5
			c-0.3-0.1-0.4-0.5-0.7-0.7C14.1,17.5,9.5,12.1,5,6.8C4.5,6.3,4,5.9,3.5,5.5C3.4,5.6,3.2,5.7,3.1,5.9c0.3,0.5,0.6,1.1,1,1.6
			c1.5,1.9,3,3.8,4.5,5.6c3.1,3.9,6.2,7.7,9.2,11.6c0.3,0.4,0.2,1.1,0.2,1.7c-0.5-0.2-1.1-0.3-1.5-0.6c-0.4-0.3-0.7-0.8-1-1.2
			C11.1,19.3,6.7,14,2.3,8.7C1.9,8.3,1.5,7.9,1.1,7.5C0.9,7.7,0.8,7.8,0.6,7.9c0.3,0.5,0.5,1,0.8,1.5c5.4,7.5,10.8,15,16.2,22.5
			c1.3,1.8,2.9,2.7,5.1,2.7c3.4,0,6.2,1.5,8.3,4.1c1,1.2,2.1,2.4,3.2,3.7c0.7-0.8,1.3-1.5,2-2.3c-1-1.2-1.9-2.2-2.8-3.3
			c-2.1-2.6-3.4-5.4-2.6-8.9c0.5-2.2-0.3-4.1-1.9-5.7c-6.5-6.7-13-13.3-19.5-20C9.2,1.9,8.8,1.7,8.4,1.4z M38.9,48
			c1.5,2,3,3.8,4.3,5.6c6,8.4,11.9,16.8,17.9,25.2c2.1,3,4.8,3.5,7.1,1.5c2.2-1.9,2-4.7-0.4-7.2C62.5,67.9,57.2,62.7,52,57.4
			c-3.7-3.7-7.2-7.5-10.9-11.4C40.4,46.6,39.7,47.2,38.9,48z"/>

			<radialGradient id="SVGID_00000106108124755809328770000011716974102716087724_" cx="40.7716" cy="40.2242" r="35.9457" gradientUnits="userSpaceOnUse">
			<stop  offset="0" style="stop-color:#FFFFFF"/>
			<stop  offset="1" style="stop-color:#D5AE27"/>
		</radialGradient>
		<path style="fill:url(#SVGID_00000106108124755809328770000011716974102716087724_);" d="M73.7,3.8c-1.2,3.4-2.2,6.7-3.6,9.9
			c-4,8.8-9.6,16.7-15.8,24.1c-2.3,2.8-5.3,4.5-8.9,5.1c-3.6,0.6-6.2,2.4-8.3,5.3c-6.8,9.4-13.7,18.7-20.5,28.1
			c-1.1,1.5-2.4,2.8-4.4,2.7c-1.8-0.1-3.2-1-3.9-2.7c-0.7-1.8-0.5-3.4,0.8-4.8c4-4.2,8.2-8.1,12-12.5c14-16.1,28-32.3,41.9-48.5
			c2.3-2.6,4.4-5.4,6.8-8c0.6-0.6,1.7-1.2,2.4-1C72.7,1.6,73.1,2.8,73.7,3.8z"/>

			<radialGradient id="SVGID_00000170241129769195209320000007201243129653895052_" cx="18.4763" cy="21.9266" r="19.2134" gradientUnits="userSpaceOnUse">
			<stop  offset="0" style="stop-color:#FFFFFF"/>
			<stop  offset="1" style="stop-color:#D5AE27"/>
		</radialGradient>
		<path style="fill:url(#SVGID_00000170241129769195209320000007201243129653895052_);" d="M8.4,1.4c0.4,0.3,0.8,0.5,1.1,0.8
			c6.5,6.7,13,13.4,19.5,20c1.6,1.6,2.3,3.5,1.9,5.7c-0.8,3.5,0.6,6.3,2.6,8.9c0.9,1.1,1.8,2.1,2.8,3.3c-0.7,0.8-1.2,1.4-2,2.3
			c-1.1-1.3-2.2-2.5-3.2-3.7c-2.2-2.6-4.9-4.1-8.3-4.1c-2.2,0-3.8-1-5.1-2.7c-5.4-7.5-10.8-15-16.2-22.5c-0.3-0.5-0.6-1-0.8-1.5
			c0.1-0.1,0.3-0.3,0.4-0.4c0.4,0.4,0.9,0.7,1.3,1.2c4.4,5.3,8.8,10.6,13.2,15.9c0.3,0.4,0.6,0.9,1,1.2c0.4,0.3,1,0.4,1.5,0.6
			c-0.1-0.6,0.1-1.3-0.2-1.7c-3-3.9-6.2-7.8-9.2-11.6c-1.5-1.9-3-3.8-4.5-5.6c-0.4-0.5-0.7-1-1-1.6c0.1-0.1,0.3-0.3,0.4-0.4
			C4,5.9,4.5,6.3,5,6.8c4.6,5.3,9.1,10.7,13.7,16.1c0.2,0.3,0.4,0.6,0.7,0.7c0.5,0.2,1,0.3,1.5,0.5c0-0.6,0.1-1.3-0.2-1.7
			c-2.5-3.2-5.2-6.3-7.8-9.5c-2.1-2.5-4.2-5.1-6.3-7.6c-0.4-0.5-0.7-1-1.1-1.5c0.1-0.1,0.3-0.3,0.4-0.4C6.5,4,7.2,4.4,7.7,5
			c4.6,5.2,9.1,10.4,13.6,15.5c0.3,0.4,0.6,0.8,1,1c0.3,0.2,0.8,0.2,1.2,0.3c0-0.5,0.2-1.1,0-1.4c-1.3-1.6-2.6-3.2-4-4.8
			C16,11.5,12.5,7.4,9,3.3C8.6,2.8,8.3,2.4,8,1.9C8.1,1.7,8.2,1.6,8.4,1.4z"/>

			<radialGradient id="SVGID_00000078725683107572487650000012508625376720295570_" cx="54.2848" cy="63.7182" r="16.6365" gradientUnits="userSpaceOnUse">
			<stop  offset="0" style="stop-color:#FFFFFF"/>
			<stop  offset="1" style="stop-color:#D5AE27"/>
		</radialGradient>
		<path style="fill:url(#SVGID_00000078725683107572487650000012508625376720295570_);" d="M38.9,48c0.8-0.8,1.5-1.4,2.2-2
			c3.7,3.9,7.3,7.7,10.9,11.4c5.2,5.3,10.5,10.5,15.7,15.8c2.4,2.4,2.6,5.3,0.4,7.2c-2.3,2-5,1.5-7.1-1.5
			c-6-8.4-11.9-16.8-17.9-25.2C41.9,51.8,40.4,50,38.9,48z"/>
	</g>
	<g>
		<path class="st5" d="M82.8,81.5L97,45.6h5.7l14.1,35.9h-6.7l-10-27.1l-0.3-1.1l-0.3,1.1l-10,27.1H82.8z M91.4,74.4l2-5.6h13.1
			l2,5.6H91.4z"/>
		<path class="st5" d="M121.7,81.5V45.7h13.7c2.5,0,4.7,0.5,6.6,1.5c1.9,1,3.3,2.4,4.3,4.1s1.5,3.8,1.5,6.1c0,2.4-0.5,4.5-1.5,6.3
			c-1,1.8-2.4,3.2-4.3,4.2c-1.9,1-4.1,1.5-6.6,1.5h-7.3v12H121.7z M134.9,63.5c1.3,0,2.4-0.2,3.4-0.8c1-0.5,1.7-1.2,2.3-2.1
			c0.5-0.9,0.8-2,0.8-3.1s-0.3-2.2-0.8-3.1c-0.5-0.9-1.3-1.6-2.3-2c-1-0.5-2.1-0.7-3.4-0.7h-6.8v11.8H134.9z"/>
		<path class="st5" d="M153.7,81.5V45.7h13.7c2.5,0,4.7,0.5,6.6,1.5c1.9,1,3.3,2.4,4.3,4.1c1,1.8,1.5,3.8,1.5,6.1
			c0,2.4-0.5,4.5-1.5,6.3c-1,1.8-2.4,3.2-4.3,4.2s-4.1,1.5-6.6,1.5h-7.3v12H153.7z M166.9,63.5c1.3,0,2.4-0.2,3.4-0.8
			c1-0.5,1.7-1.2,2.3-2.1c0.5-0.9,0.8-2,0.8-3.1s-0.3-2.2-0.8-3.1c-0.5-0.9-1.3-1.6-2.3-2c-1-0.5-2.1-0.7-3.4-0.7h-6.8v11.8H166.9z"
			/>
		<path class="st0" d="M186.4,81.5V45.7h24.7v2.5h-22.1v13.5h18.2v2.5h-18.2v14.6h22.4v2.5H186.4z"/>
		<path class="st0" d="M227.4,81.5V48.2h-12.2v-2.6h27v2.6h-12.2v33.3H227.4z"/>
		<path class="st0" d="M248.7,81.5V45.7h2.7v35.8H248.7z"/>
		<path class="st0" d="M269.9,81.5V48.2h-12.2v-2.6h27v2.6h-12.2v33.3H269.9z"/>
	</g>
</g>
</svg>
